<?xml version="1.0" standalone="no"?>
<!DOCTYPE svg PUBLIC "-//W3C//DTD SVG 20010904//EN"
 "http://www.w3.org/TR/2001/REC-SVG-20010904/DTD/svg10.dtd">
<svg version="1.0" xmlns="http://www.w3.org/2000/svg"
 width="840.000000pt" height="1062.000000pt" viewBox="0 0 840.000000 1062.000000"
 preserveAspectRatio="xMidYMid meet">

<g transform="translate(0.000000,1062.000000) scale(0.100000,-0.100000)"
fill="#000000" stroke="none">
<path d="M3785 10241 c-126 -30 -232 -68 -325 -118 -92 -51 -193 -116 -230
-151 -13 -12 -28 -22 -32 -22 -25 0 -273 -215 -413 -356 -90 -92 -330 -355
-334 -367 -2 -7 -25 -37 -50 -67 -94 -111 -200 -248 -221 -284 -11 -21 -38
-61 -58 -89 -69 -95 -202 -296 -202 -305 0 -5 -43 -81 -96 -168 -128 -211
-231 -424 -423 -869 -112 -259 -238 -592 -262 -692 -7 -26 -25 -89 -40 -140
-52 -167 -147 -507 -165 -583 -9 -41 -27 -119 -40 -172 -13 -53 -24 -112 -24
-130 0 -18 -7 -61 -15 -95 -13 -53 -50 -268 -85 -488 -38 -238 -72 -586 -90
-930 -13 -241 -4 -828 14 -960 51 -374 131 -602 259 -736 70 -73 174 -164 217
-191 144 -87 484 -246 665 -310 1103 -393 2563 -462 3925 -188 107 21 233 49
280 60 47 12 110 28 141 35 166 41 503 172 674 262 89 47 268 176 324 233 146
150 253 295 273 369 4 14 21 64 38 110 53 145 63 235 56 491 -3 124 -10 281
-16 350 -25 302 -52 593 -66 689 -7 58 -14 125 -14 151 0 137 -114 768 -211
1167 -27 111 -49 212 -49 225 0 47 -135 510 -224 768 -25 74 -46 141 -46 149
0 20 -111 314 -121 321 -4 3 -16 28 -27 55 -18 44 -35 85 -87 200 -7 17 -17
44 -21 60 -12 51 -148 339 -292 620 -34 66 -133 231 -194 323 -26 41 -48 78
-48 83 0 12 -54 89 -177 256 -46 62 -83 115 -83 119 0 20 -278 342 -410 475
-69 69 -141 143 -160 163 -19 21 -55 54 -80 74 -25 20 -78 65 -117 99 -40 34
-99 79 -130 99 -32 20 -89 60 -128 89 -119 89 -340 215 -453 257 -157 60 -201
69 -372 73 -128 4 -169 1 -235 -14z m95 -43 c-21 -23 -34 -83 -28 -138 4 -43
29 -51 69 -21 25 19 30 20 35 6 8 -20 48 -19 68 1 15 14 17 14 23 -1 5 -14 14
-16 53 -11 38 5 49 3 54 -9 10 -27 86 -16 86 13 0 9 12 42 27 74 23 48 32 58
53 58 14 0 32 -4 40 -10 12 -7 11 -10 -5 -15 -11 -4 -27 -10 -35 -14 -18 -9
-57 -86 -66 -128 -5 -26 -2 -32 15 -38 33 -10 58 11 75 63 9 26 29 63 44 81
l28 34 34 -18 35 -18 -29 -8 c-36 -10 -64 -35 -86 -79 -31 -62 -33 -78 -11
-90 34 -17 69 -2 81 35 16 49 67 115 89 115 10 0 29 -9 42 -20 l24 -19 -22 -1
c-27 0 -88 -52 -109 -91 -21 -42 -18 -68 10 -75 34 -8 63 10 75 49 6 18 27 48
45 66 37 36 52 36 96 1 l25 -20 -43 0 c-36 0 -49 -6 -82 -37 -51 -48 -64 -99
-29 -111 35 -13 51 -5 83 42 16 23 44 53 62 65 30 21 37 22 64 11 41 -17 38
-30 -9 -30 -30 0 -47 -8 -84 -40 -55 -48 -67 -78 -41 -97 30 -22 61 -16 84 17
11 16 41 46 65 65 l44 36 33 -18 33 -18 -44 -3 c-37 -3 -51 -11 -92 -52 -27
-27 -49 -56 -49 -64 0 -19 30 -36 64 -36 18 0 26 -5 26 -18 0 -23 19 -42 41
-42 10 0 41 23 69 50 28 28 58 50 66 50 8 0 17 7 20 15 5 13 10 13 33 0 15 -7
32 -20 38 -27 9 -10 2 -12 -38 -10 -43 4 -55 0 -94 -30 -79 -60 -83 -108 -9
-108 31 0 34 -2 29 -23 -12 -46 63 -72 101 -36 13 12 24 28 24 35 0 7 23 27
51 44 l52 32 26 -27 26 -26 -40 2 c-47 3 -79 -12 -114 -54 -40 -46 -43 -54
-25 -71 23 -24 55 -19 89 13 16 16 48 38 69 50 22 11 42 24 45 29 3 5 17 -4
30 -21 l24 -29 -31 7 c-38 8 -89 -14 -139 -62 -35 -32 -35 -34 -18 -53 27 -30
62 -25 107 16 22 20 56 43 75 51 34 14 37 13 64 -13 16 -15 27 -29 26 -30 -2
-2 -19 2 -38 7 -30 10 -42 8 -80 -11 -82 -41 -108 -79 -70 -100 34 -18 61 -11
105 25 24 19 48 35 54 35 6 0 18 7 27 17 16 15 21 12 83 -51 l67 -66 -45 5
c-37 5 -54 1 -94 -22 -59 -34 -76 -56 -60 -81 19 -29 60 -26 101 7 21 16 57
37 81 47 40 16 44 16 62 -1 30 -28 24 -35 -24 -29 -35 5 -52 1 -92 -21 -80
-43 -90 -72 -34 -95 26 -11 33 -9 72 18 24 16 61 37 82 46 38 16 40 16 63 -6
32 -30 29 -38 -10 -26 -27 8 -42 6 -84 -12 -86 -37 -105 -76 -48 -102 22 -10
30 -7 68 19 23 17 60 38 81 47 38 16 40 16 63 -6 31 -29 29 -39 -6 -25 -38 14
-93 -3 -140 -42 -39 -32 -37 -54 4 -73 21 -10 29 -8 48 10 12 11 49 33 81 47
65 29 75 26 103 -29 l16 -30 -26 17 c-37 24 -84 21 -142 -11 -54 -29 -68 -58
-39 -79 26 -19 49 -16 92 10 20 13 57 31 81 40 47 18 65 13 74 -22 4 -16 1
-17 -29 -8 -39 12 -108 -10 -152 -48 -26 -23 -27 -23 -8 -44 22 -24 62 -27 85
-7 9 8 42 26 73 39 l58 26 25 -32 c26 -34 20 -46 -15 -27 -27 14 -73 5 -127
-26 -48 -28 -53 -46 -21 -68 30 -21 42 -20 87 8 21 14 58 30 81 36 41 11 45
10 62 -12 22 -29 23 -42 1 -33 -41 18 -81 16 -124 -6 -70 -35 -83 -70 -33 -89
17 -7 34 -3 66 15 24 13 63 29 88 35 43 12 45 11 67 -17 31 -38 29 -47 -9 -27
-35 18 -87 14 -143 -13 -28 -13 -35 -22 -35 -45 0 -42 33 -51 85 -25 22 11 63
26 90 34 47 12 51 12 68 -8 23 -29 22 -42 -4 -28 -33 17 -80 13 -137 -11 -60
-26 -72 -47 -42 -72 29 -24 43 -23 104 6 80 38 111 40 131 10 18 -27 13 -46
-7 -26 -26 26 -142 6 -174 -29 -14 -16 -15 -21 -4 -34 28 -34 46 -36 102 -11
29 13 69 26 89 29 31 5 38 2 52 -23 23 -38 21 -43 -9 -24 -33 22 -78 20 -137
-6 -54 -24 -62 -50 -23 -75 23 -15 27 -15 58 1 39 20 138 45 150 38 5 -3 18
-24 29 -47 l21 -41 -32 27 c-22 19 -43 27 -71 27 -46 0 -98 -19 -118 -44 -12
-14 -11 -19 4 -36 21 -24 41 -25 86 -6 19 8 57 17 86 21 50 7 52 6 68 -24 17
-34 11 -39 -19 -16 -25 19 -69 18 -131 -4 -59 -21 -71 -50 -31 -76 23 -15 29
-15 83 4 32 11 75 22 96 25 33 4 39 2 52 -25 14 -25 14 -29 1 -29 -8 0 -18 5
-21 10 -8 14 -92 11 -134 -4 -49 -17 -60 -39 -36 -66 21 -23 31 -23 125 4 77
22 95 20 108 -9 17 -37 15 -38 -16 -19 -25 14 -36 15 -85 4 -31 -6 -66 -19
-78 -29 -18 -15 -20 -21 -10 -39 16 -29 52 -37 88 -19 16 9 52 20 81 25 56 10
64 6 77 -36 7 -23 6 -23 -24 -8 -38 20 -65 20 -125 0 -56 -19 -64 -34 -39 -68
17 -23 63 -36 63 -18 0 22 151 45 163 25 2 -5 7 -21 11 -36 l7 -29 -33 19
c-18 10 -36 23 -40 28 -5 6 -8 6 -8 -1 0 -6 -18 -14 -40 -17 -47 -6 -90 -31
-90 -52 0 -8 11 -22 25 -31 22 -14 28 -15 67 0 24 8 64 17 91 20 44 4 48 3 62
-25 18 -34 17 -34 -28 -13 -28 14 -42 14 -89 5 -31 -7 -63 -20 -72 -30 -16
-18 -16 -20 6 -45 l23 -26 63 20 c89 28 126 27 140 -5 19 -41 14 -46 -24 -23
-33 19 -41 20 -97 10 -72 -14 -94 -30 -78 -60 15 -28 44 -36 84 -23 33 10 144
18 150 10 3 -2 7 -17 11 -32 l7 -28 -30 22 c-25 18 -37 21 -81 15 -98 -13
-125 -40 -81 -80 17 -16 25 -16 87 -3 91 19 116 16 131 -13 15 -31 10 -36 -19
-16 -26 18 -76 21 -130 6 -42 -12 -52 -22 -44 -48 11 -34 38 -41 96 -26 81 21
127 19 135 -7 10 -29 1 -33 -29 -14 -27 18 -63 16 -133 -6 -38 -12 -43 -37
-13 -64 19 -17 26 -18 66 -7 24 7 66 12 93 12 42 0 49 -3 60 -26 15 -34 7 -42
-18 -20 -44 40 -173 25 -179 -21 -5 -32 37 -57 72 -43 15 5 58 10 96 10 67 0
68 0 79 -31 6 -17 7 -29 3 -27 -61 32 -89 39 -134 33 -26 -4 -58 -15 -69 -24
l-21 -17 24 -29 c23 -26 27 -27 58 -17 45 16 155 15 167 0 6 -7 13 -26 17 -42
l7 -29 -31 27 c-27 22 -41 26 -95 26 -81 0 -95 -6 -95 -40 0 -44 20 -53 82
-41 69 15 146 10 158 -9 6 -8 10 -25 10 -37 0 -22 0 -22 -27 3 -26 24 -34 26
-100 22 -90 -4 -116 -22 -90 -61 16 -24 18 -25 121 -20 l105 6 11 -27 c14 -37
12 -55 -3 -35 -24 32 -56 41 -122 34 -68 -8 -90 -22 -81 -53 10 -30 46 -44 86
-32 19 5 58 10 87 10 54 0 73 -14 73 -55 0 -13 -5 -12 -29 6 -25 18 -39 21
-100 17 -76 -4 -97 -15 -87 -45 11 -35 45 -45 112 -34 79 12 128 3 132 -27 4
-25 -10 -29 -28 -7 -24 29 -180 12 -180 -19 0 -7 11 -23 25 -36 23 -22 28 -23
76 -12 69 16 128 6 141 -24 15 -32 3 -42 -23 -18 -17 15 -35 19 -86 18 -79 -2
-103 -19 -85 -59 l12 -25 99 6 100 7 11 -27 c19 -50 13 -59 -21 -34 -25 18
-44 23 -95 23 -78 0 -96 -13 -73 -53 15 -27 16 -27 112 -25 53 1 99 -3 103 -8
9 -15 44 -147 44 -166 0 -16 -3 -15 -18 4 -22 28 -62 43 -117 43 -58 0 -75 -8
-75 -35 0 -39 24 -48 127 -49 106 -1 112 -5 112 -71 0 -27 -1 -28 -9 -8 -14
34 -61 53 -135 53 -74 0 -89 -14 -64 -59 14 -24 20 -26 109 -32 57 -3 98 -1
102 5 3 5 11 -8 17 -30 16 -56 14 -73 -5 -46 -23 33 -67 52 -123 52 -64 0 -81
-7 -81 -35 0 -29 16 -35 95 -35 87 0 123 -9 130 -31 18 -65 18 -66 -8 -34 -23
27 -31 30 -99 33 -59 3 -77 1 -87 -12 -11 -13 -11 -20 3 -41 15 -23 23 -25 99
-27 45 0 89 -1 97 -2 15 -1 38 -62 27 -72 -3 -4 -16 6 -29 21 -21 24 -31 27
-90 28 -81 2 -100 -10 -78 -50 14 -26 19 -27 109 -29 101 -1 111 -7 111 -57
l0 -29 -31 31 c-28 29 -36 31 -100 31 -78 0 -93 -12 -65 -54 14 -22 23 -25 88
-26 118 -1 122 -2 129 -41 10 -45 4 -48 -29 -17 -32 31 -78 42 -133 33 -48 -8
-59 -29 -31 -58 18 -18 35 -21 112 -23 50 -1 92 -3 94 -5 3 -2 7 -22 11 -44
l8 -40 -32 30 c-27 25 -41 30 -99 33 -79 5 -99 -7 -79 -48 12 -23 19 -25 110
-31 54 -4 100 -8 102 -10 2 -2 6 -22 10 -44 l7 -40 -26 29 c-44 49 -177 56
-184 10 -5 -37 26 -52 120 -56 47 -1 89 -6 93 -9 3 -4 9 -23 12 -43 l6 -37
-30 29 c-51 52 -183 57 -183 7 0 -36 23 -46 120 -50 50 -2 93 -5 94 -7 2 -1 7
-21 11 -43 l7 -40 -32 30 c-27 26 -40 30 -100 33 -78 5 -93 -7 -72 -54 11 -22
17 -24 84 -25 97 -1 120 -9 129 -41 10 -38 1 -41 -33 -13 -25 21 -40 25 -99
25 -63 0 -69 -2 -69 -21 0 -49 16 -59 95 -59 104 0 125 -10 125 -57 l0 -38
-23 28 c-28 34 -116 55 -160 38 -23 -9 -27 -15 -21 -34 12 -39 23 -44 115 -49
96 -6 109 -12 109 -55 0 -29 -3 -29 -33 1 -42 42 -180 50 -185 11 -5 -39 13
-49 100 -57 123 -11 123 -11 126 -46 4 -37 -3 -40 -27 -11 -14 18 -31 23 -94
27 -84 5 -100 -5 -79 -52 10 -21 18 -24 100 -28 101 -5 122 -15 122 -60 l0
-30 -34 29 c-25 23 -47 32 -90 37 -87 10 -121 -19 -76 -64 16 -16 29 -19 58
-15 20 3 62 0 92 -7 53 -13 55 -15 58 -48 l4 -35 -32 30 c-28 26 -39 30 -105
33 -84 5 -101 -8 -71 -53 15 -22 24 -25 84 -26 104 -2 116 -7 123 -59 16 -120
19 -160 9 -160 -5 0 -10 8 -10 18 0 42 -109 92 -167 77 -26 -6 -31 -40 -9 -70
12 -17 89 -34 174 -39 17 -1 22 -7 22 -28 0 -14 3 -33 6 -42 11 -27 -10 -17
-28 13 -18 32 -66 51 -131 51 -45 0 -56 -19 -33 -55 12 -18 25 -25 50 -25 18
0 55 -7 81 -15 27 -8 52 -12 57 -9 4 3 8 -5 9 -18 0 -13 2 -33 3 -46 4 -30 -8
-28 -25 6 -18 36 -25 40 -86 52 -62 13 -93 6 -93 -21 0 -33 36 -59 80 -59 22
0 55 -6 73 -13 18 -8 37 -12 43 -10 13 4 24 -50 14 -66 -3 -6 -14 3 -25 20
-22 32 -66 49 -132 49 -37 0 -43 -3 -43 -22 0 -34 29 -58 69 -58 20 0 54 -5
76 -12 22 -6 45 -12 50 -12 6 -1 11 -23 13 -51 l3 -50 -19 35 c-23 42 -49 56
-119 66 -44 5 -54 4 -59 -10 -4 -10 -2 -28 4 -40 8 -19 21 -25 64 -30 30 -4
72 -13 93 -20 36 -13 40 -17 43 -53 l3 -38 -33 38 c-30 35 -39 39 -95 44 -70
6 -86 -6 -65 -53 9 -19 19 -24 48 -24 21 0 61 -8 91 -17 53 -17 53 -17 53 -57
l0 -41 -19 31 c-22 36 -65 54 -128 54 -51 0 -64 -17 -39 -55 13 -20 25 -25 55
-25 21 0 62 -7 90 -17 50 -16 51 -16 51 -57 l-1 -41 -15 27 c-19 36 -58 55
-114 58 -65 4 -70 2 -70 -20 0 -32 36 -60 78 -60 20 0 57 -6 82 -14 37 -11 46
-18 48 -40 2 -15 1 -35 -3 -44 -5 -14 -9 -12 -21 10 -18 34 -59 56 -119 64
-37 6 -46 4 -52 -11 -3 -11 0 -30 9 -46 14 -23 14 -28 2 -33 -32 -12 -8 -86
29 -86 12 0 46 -11 75 -25 30 -14 58 -22 64 -19 6 4 7 -9 2 -33 -7 -43 -15
-54 -21 -35 -12 33 -56 70 -97 82 -54 15 -76 9 -76 -22 0 -36 11 -46 65 -59
54 -13 115 -48 114 -64 0 -5 -6 -23 -13 -40 l-13 -30 -12 38 c-10 30 -23 43
-62 62 -26 14 -60 25 -74 25 -21 0 -25 -5 -25 -27 0 -41 11 -51 68 -68 28 -9
63 -26 77 -38 25 -21 25 -23 12 -62 -13 -38 -14 -39 -22 -15 -10 35 -50 75
-95 95 -51 23 -72 15 -68 -27 3 -28 10 -36 54 -58 28 -14 64 -35 79 -47 25
-21 27 -25 15 -53 -7 -16 -18 -35 -26 -41 -11 -9 -14 -7 -14 10 0 37 -26 74
-73 109 -53 38 -63 39 -77 12 -15 -28 -4 -58 29 -74 15 -8 46 -33 69 -56 43
-44 44 -48 9 -93 -21 -25 -27 -21 -27 17 0 36 -43 100 -86 126 -22 13 -26 13
-34 0 -19 -30 -9 -60 35 -110 66 -75 71 -87 44 -116 -28 -30 -43 -31 -36 -3 6
23 -1 44 -36 104 -29 49 -66 55 -81 13 -8 -23 -4 -32 31 -72 57 -65 65 -131
19 -149 -12 -5 -14 0 -9 24 12 62 -58 177 -91 150 -29 -24 -29 -50 2 -99 16
-26 35 -65 42 -86 12 -37 11 -40 -11 -57 -37 -28 -49 -25 -36 10 9 24 7 41 -6
84 -19 60 -46 91 -71 81 -27 -10 -30 -52 -8 -102 12 -26 23 -57 26 -69 4 -13
8 -32 12 -42 4 -15 -3 -24 -25 -36 -34 -17 -37 -14 -20 17 15 28 -4 117 -33
153 -19 25 -21 25 -39 9 -24 -22 -24 -41 1 -99 11 -26 20 -66 20 -89 0 -36 -4
-45 -25 -54 -28 -13 -32 -3 -13 27 9 15 8 33 -6 85 -21 76 -35 93 -66 76 -41
-22 -44 -83 -7 -111 4 -3 11 -31 14 -62 6 -55 5 -57 -22 -67 -35 -13 -39 -9
-24 24 14 29 -1 119 -25 152 -13 17 -15 17 -40 1 -30 -20 -32 -40 -11 -90 8
-20 15 -57 15 -82 0 -38 -4 -47 -22 -54 -30 -11 -32 -8 -20 27 10 30 -3 139
-19 156 -4 5 -19 2 -35 -8 -23 -16 -25 -22 -19 -54 4 -21 10 -63 14 -96 6 -54
5 -59 -16 -69 -31 -14 -36 -6 -18 29 16 32 11 91 -12 137 -16 32 -33 34 -58 7
-17 -18 -17 -25 -5 -78 11 -50 16 -120 8 -128 -2 -1 -17 -6 -33 -10 -30 -7
-30 -7 -11 14 15 17 18 33 14 91 -4 83 -15 100 -54 82 l-26 -12 7 -98 c7 -95
6 -100 -15 -111 -30 -16 -35 -7 -15 24 14 21 16 38 10 84 -4 31 -12 63 -17 70
-31 37 -87 -14 -68 -62 5 -15 10 -54 10 -86 0 -59 -7 -70 -46 -70 -13 0 -13 3
0 22 19 26 21 101 5 147 -13 36 -37 40 -64 11 -16 -18 -17 -26 -7 -71 24 -104
12 -140 -50 -139 -23 1 -23 1 -3 16 17 12 20 27 20 89 0 77 -10 100 -39 89
-29 -11 -37 -39 -26 -91 13 -67 1 -115 -33 -127 -36 -13 -44 -3 -18 23 17 17
21 34 21 80 0 71 -6 91 -29 91 -42 0 -54 -24 -52 -97 2 -85 -9 -119 -43 -125
-31 -6 -32 -5 -5 31 16 22 19 39 17 91 -4 77 -24 98 -60 63 -18 -19 -21 -33
-22 -108 -1 -90 -8 -105 -50 -105 -18 0 -17 3 7 28 24 25 27 36 27 94 0 79
-15 100 -55 74 -23 -15 -25 -22 -25 -101 0 -47 0 -88 1 -92 0 -9 -35 -20 -65
-22 -19 -1 -19 0 2 19 27 26 34 52 30 121 -3 50 -5 54 -29 57 -41 5 -51 -18
-51 -115 0 -94 -4 -101 -56 -102 -22 -1 -22 0 -7 16 25 25 35 58 35 119 0 59
-13 74 -48 55 -16 -8 -20 -25 -25 -102 -3 -50 -8 -93 -10 -96 -3 -2 -22 -7
-43 -10 l-39 -6 27 25 c27 27 43 87 36 144 -2 22 -9 30 -26 32 -37 5 -63 -25
-56 -64 6 -35 -13 -144 -25 -144 -5 0 -24 -3 -42 -7 l-34 -6 31 26 c23 20 33
38 37 72 10 68 -1 105 -29 105 -41 0 -53 -23 -53 -110 0 -44 -3 -85 -6 -90 -3
-6 -20 -10 -37 -10 l-31 0 26 24 c43 40 50 176 8 176 -41 0 -56 -25 -58 -97
-3 -102 -4 -107 -38 -115 -40 -9 -43 -3 -15 27 18 19 25 40 28 85 5 65 -8 93
-36 83 -40 -14 -49 -32 -44 -86 5 -66 -17 -127 -47 -127 -25 0 -25 -3 -1 45
21 41 27 119 11 144 -8 12 -15 13 -34 4 -23 -11 -25 -18 -29 -97 -2 -48 -9
-90 -14 -95 -5 -5 -31 -11 -59 -15 l-50 -6 28 18 c15 9 33 32 39 49 7 18 16
33 20 33 4 0 8 20 8 44 0 57 -20 76 -58 55 -23 -13 -28 -24 -35 -79 -5 -36 -9
-77 -10 -92 -2 -25 -6 -28 -40 -28 l-38 0 28 24 c24 21 28 32 31 93 3 59 1 71
-13 76 -34 14 -55 -10 -55 -63 0 -27 -5 -70 -12 -95 -11 -42 -14 -45 -47 -45
l-34 0 22 24 c24 25 40 79 41 133 0 39 -29 52 -65 29 -21 -14 -25 -24 -25 -68
0 -28 -5 -68 -12 -89 -10 -36 -14 -39 -47 -39 l-36 0 28 23 c30 24 47 71 47
130 0 45 -21 57 -59 36 -22 -13 -26 -22 -27 -65 -1 -28 -5 -64 -9 -80 -5 -16
-9 -33 -9 -39 -1 -5 -19 -11 -41 -13 l-40 -3 28 23 c21 18 30 37 39 84 13 72
7 94 -25 94 -34 0 -47 -19 -47 -68 0 -24 -5 -63 -11 -88 -11 -43 -12 -44 -53
-44 l-41 1 28 17 c31 19 47 64 47 130 0 49 -17 62 -54 42 -20 -10 -24 -22 -28
-81 -6 -80 -27 -119 -63 -119 -31 0 -31 1 -1 44 28 42 42 117 26 146 -13 24
-20 25 -45 6 -13 -9 -21 -33 -26 -77 -12 -101 -22 -119 -65 -119 l-36 0 30 28
c21 20 33 44 41 83 14 65 7 89 -23 89 -37 -1 -52 -22 -59 -82 -9 -88 -24 -112
-72 -116 l-40 -3 32 23 c35 25 53 72 53 137 0 36 -3 41 -23 41 -41 0 -54 -21
-67 -112 l-13 -88 -41 0 -41 0 32 26 c35 27 53 74 53 137 0 34 -2 37 -28 37
-36 0 -52 -16 -53 -54 0 -17 -8 -56 -17 -86 -16 -50 -20 -55 -50 -58 -35 -4
-43 12 -13 28 22 11 49 78 53 130 3 29 0 35 -19 38 -39 6 -60 -14 -66 -62 -4
-24 -14 -62 -23 -85 -15 -38 -19 -41 -53 -41 l-36 0 27 23 c34 29 58 78 61
125 2 32 -1 37 -21 40 -30 4 -52 -14 -52 -43 0 -13 -10 -45 -22 -72 -12 -26
-20 -54 -19 -61 1 -8 -11 -12 -37 -12 -52 0 -58 9 -19 29 35 17 65 68 74 125
6 41 -12 55 -55 40 -19 -7 -28 -21 -38 -62 -8 -29 -20 -65 -28 -81 -9 -16 -12
-31 -9 -35 4 -3 -15 -6 -41 -6 -29 0 -45 4 -41 10 3 6 12 10 19 10 28 0 65 60
80 132 8 35 -19 52 -55 35 -18 -9 -28 -27 -39 -72 -28 -106 -27 -105 -71 -105
-46 0 -50 7 -10 21 34 12 62 62 69 126 5 42 4 43 -25 43 -37 0 -47 -12 -63
-70 -7 -25 -20 -61 -30 -81 -17 -32 -22 -35 -55 -31 -38 5 -39 8 -3 26 30 15
57 64 64 119 7 47 6 47 -22 47 -42 0 -54 -12 -65 -61 -5 -24 -17 -61 -27 -81
-15 -34 -21 -38 -54 -38 -45 0 -50 15 -10 23 24 5 34 17 56 67 31 69 31 94 -2
98 -28 4 -52 -14 -52 -39 0 -11 -4 -19 -10 -19 -5 0 -10 -5 -10 -12 0 -6 -10
-33 -22 -59 -19 -40 -28 -48 -50 -49 -14 0 -34 3 -42 6 -13 5 -9 10 16 23 57
28 103 152 62 168 -27 10 -62 -14 -69 -49 -4 -18 -19 -57 -33 -86 -21 -44 -29
-52 -46 -48 -12 3 -28 6 -36 6 -8 0 1 13 22 30 24 20 42 47 53 80 19 58 15 80
-15 80 -41 0 -60 -18 -60 -57 0 -21 -11 -55 -25 -80 -26 -44 -45 -51 -88 -34
-15 5 -12 9 16 19 26 9 39 23 55 60 32 71 34 88 17 102 -12 10 -24 11 -42 4
-20 -7 -30 -22 -45 -68 -25 -76 -45 -106 -72 -106 -11 1 -55 9 -96 19 -69 16
-73 18 -43 25 37 9 52 25 71 75 24 63 25 80 8 87 -33 13 -63 -4 -70 -40 -4
-19 -18 -50 -31 -70 -14 -20 -25 -41 -25 -46 0 -13 -40 -13 -60 0 -12 7 -10
11 10 18 32 13 56 39 75 85 19 46 19 73 0 81 -22 8 -65 -11 -71 -31 -14 -45
-49 -115 -65 -129 -11 -10 -25 -13 -38 -9 -20 6 -19 8 14 39 51 49 82 134 55
151 -6 4 -23 4 -39 0 -24 -5 -30 -13 -35 -43 -3 -20 -18 -56 -33 -80 -21 -32
-34 -42 -55 -42 -35 0 -45 17 -16 25 37 11 55 33 79 92 21 52 21 57 5 68 -31
23 -86 -2 -86 -39 0 -28 -57 -126 -73 -125 -6 0 -28 6 -47 13 l-35 13 37 7
c38 7 75 42 104 98 21 41 12 58 -31 58 -31 0 -37 -4 -59 -48 -13 -27 -32 -54
-40 -61 -9 -8 -16 -22 -16 -32 0 -22 -6 -23 -51 -7 l-33 11 34 12 c27 9 42 24
66 70 37 68 35 87 -10 83 -25 -2 -34 -10 -49 -43 -38 -81 -96 -121 -137 -95
-13 8 -13 10 0 14 8 3 24 6 34 8 24 4 86 93 86 123 0 26 -28 40 -57 31 -10 -3
-31 -30 -46 -60 -16 -29 -39 -64 -53 -77 -23 -22 -25 -22 -57 -6 -27 13 -29
16 -10 16 42 2 136 122 118 151 -9 14 -69 12 -83 -2 -7 -7 -12 -22 -12 -33 0
-27 -66 -105 -89 -105 -9 0 -26 7 -37 15 -19 14 -19 14 3 15 49 0 132 106 112
143 -10 17 -45 23 -65 9 -6 -4 -19 -22 -28 -39 -22 -44 -75 -103 -92 -103 -19
0 -64 22 -64 32 0 4 14 8 30 8 57 0 147 117 109 141 -40 25 -61 7 -165 -139
-1 -2 -22 5 -46 16 l-43 20 33 1 c47 1 65 14 102 71 26 41 30 53 20 65 -23 27
-58 18 -84 -22 -13 -21 -40 -53 -61 -72 l-36 -34 -87 44 -87 43 42 6 c44 6 78
31 116 84 19 26 19 30 4 41 -9 7 -14 15 -10 18 3 4 -7 7 -23 7 -22 0 -35 -9
-53 -36 -14 -20 -41 -48 -60 -62 -20 -15 -37 -30 -39 -34 -4 -8 -82 28 -82 38
0 3 15 2 32 -1 41 -8 119 39 142 84 14 27 14 31 0 45 -28 29 -60 19 -103 -32
-22 -26 -56 -55 -75 -66 l-34 -18 -45 31 c-25 17 -47 35 -49 40 -1 5 -27 28
-56 51 -58 45 -63 62 -12 35 37 -19 80 -15 148 16 49 21 52 40 11 71 -26 19
-26 19 -65 -1 -21 -12 -60 -24 -86 -27 -31 -4 -48 -11 -48 -20 0 -27 -20 -13
-65 44 -43 55 -95 150 -95 175 0 6 13 -3 28 -20 32 -35 88 -49 151 -38 55 9
65 24 42 61 l-19 31 -95 -3 c-53 -1 -101 -5 -107 -9 -10 -6 -24 21 -36 73 -7
26 -6 26 12 11 33 -29 79 -48 132 -55 44 -5 53 -4 58 11 4 9 3 29 -2 44 -8 22
-17 27 -64 33 -30 5 -72 15 -92 23 -21 8 -44 12 -52 9 -10 -4 -17 2 -20 18 -3
12 -10 46 -15 73 -12 56 -14 67 -36 214 -16 109 -32 401 -21 401 3 0 12 -13
21 -30 21 -41 50 -57 117 -65 49 -6 59 -5 64 10 4 9 -2 28 -13 43 -20 27 -20
27 0 43 l21 16 -21 36 c-18 29 -19 36 -7 41 19 7 18 50 -2 67 -14 11 -14 13 0
21 30 17 12 87 -22 89 -10 1 -7 4 8 8 56 16 27 85 -39 94 -23 3 -61 13 -86 24
-44 18 -52 32 -39 68 5 13 10 10 25 -15 18 -29 70 -58 131 -74 38 -9 53 19 32
59 -13 26 -13 30 1 37 35 20 -3 88 -50 88 -14 0 -25 4 -25 8 0 4 -23 16 -51
27 -55 21 -63 30 -57 67 3 22 4 22 22 -8 21 -36 67 -61 127 -70 53 -9 66 8 39
53 -18 32 -18 32 1 38 10 4 19 13 19 20 0 28 -24 65 -42 65 -10 0 -50 12 -88
27 -63 25 -70 30 -70 55 0 36 16 36 35 -1 10 -21 30 -35 70 -50 31 -12 64 -21
74 -21 27 0 34 27 17 62 -13 25 -13 30 0 35 19 7 18 57 -1 73 -21 17 -19 30 5
30 15 0 20 7 20 29 0 34 -11 43 -70 60 -92 27 -120 44 -120 73 0 15 5 30 10
33 6 3 10 0 10 -8 0 -24 38 -55 94 -76 58 -21 80 -20 90 6 8 20 -19 63 -39 63
-9 0 -47 12 -85 27 -63 25 -70 30 -70 55 0 15 2 28 5 28 3 0 19 -15 35 -34 39
-44 134 -76 157 -53 13 13 13 19 2 43 -11 21 -26 31 -64 41 -108 27 -141 53
-116 92 7 11 12 7 25 -16 29 -56 166 -95 174 -50 6 29 -25 67 -54 67 -34 0
-144 49 -143 64 0 6 4 20 8 31 8 19 9 18 21 -7 17 -37 72 -68 132 -75 l48 -6
0 30 c0 17 -7 36 -15 43 -21 17 -19 30 5 30 28 0 30 41 3 72 -13 15 -12 17 9
20 31 4 35 34 9 69 l-22 29 25 0 c29 0 36 16 23 53 -6 17 -18 29 -35 33 -86
19 -142 53 -142 88 0 37 13 39 24 4 18 -53 157 -112 172 -73 14 36 -9 67 -61
84 -28 9 -67 27 -86 39 -32 19 -35 25 -31 54 l5 33 13 -31 c16 -38 99 -84 151
-84 30 0 33 3 33 29 0 31 -30 61 -59 61 -8 0 -41 12 -73 27 -50 24 -58 32 -58
55 0 38 16 43 29 10 13 -31 47 -54 111 -77 48 -17 70 -11 70 19 0 33 -20 52
-74 70 -69 22 -116 56 -116 83 0 12 5 25 10 28 6 3 10 2 10 -4 0 -24 55 -72
107 -91 51 -19 58 -19 72 -6 11 12 13 22 5 43 -7 21 -22 32 -64 48 -108 40
-132 60 -112 92 5 8 16 2 34 -21 17 -22 47 -41 88 -56 68 -25 84 -20 78 26 -2
24 -10 30 -45 40 -24 7 -65 25 -92 40 -46 26 -49 31 -44 59 3 16 7 32 9 34 7
8 24 -12 24 -28 0 -24 36 -56 94 -81 44 -20 50 -21 64 -6 14 14 14 19 -1 51
-11 23 -24 35 -37 35 -11 0 -20 3 -20 8 0 4 -25 20 -55 36 -54 28 -65 45 -45
76 10 16 9 17 30 -25 10 -19 34 -39 68 -56 29 -14 49 -28 45 -32 -3 -4 3 -7
15 -7 15 0 24 8 28 24 11 46 0 60 -75 97 -96 48 -103 56 -86 94 13 30 14 30
29 -17 7 -22 108 -88 134 -88 37 0 32 73 -5 87 -15 5 -106 62 -136 84 -4 3 -3
18 3 34 l11 28 17 -33 c34 -66 151 -122 160 -77 7 36 -7 65 -35 71 -36 9 -133
75 -133 90 0 7 7 21 15 32 12 16 14 17 15 2 1 -44 116 -127 155 -112 21 8 19
57 -3 76 -9 9 -28 19 -42 23 -14 4 -40 19 -59 34 -19 14 -39 29 -45 33 -6 4
-5 16 3 34 l12 28 19 -42 c15 -33 30 -47 73 -68 63 -31 87 -27 87 14 0 34 -21
55 -71 71 -53 17 -100 62 -92 89 7 30 16 28 30 -7 12 -33 105 -93 138 -89 16
2 20 11 20 38 0 32 -5 37 -56 65 -101 54 -125 84 -100 124 7 10 11 6 16 -17 7
-32 47 -69 108 -98 45 -22 67 -13 67 26 0 24 -7 35 -31 48 -91 50 -140 87
-137 106 5 30 22 29 35 -1 14 -32 114 -96 141 -91 19 4 27 29 18 61 -3 14 -22
29 -51 41 -26 10 -62 33 -81 52 -31 28 -34 36 -24 54 13 24 30 18 30 -10 0
-34 115 -106 151 -95 16 5 19 14 17 38 -3 27 -11 36 -59 62 -105 56 -124 81
-94 121 14 19 14 19 15 -2 0 -45 98 -129 143 -122 18 2 22 10 22 37 0 31 -5
38 -55 67 -73 43 -104 76 -95 103 8 26 25 27 25 2 0 -56 149 -142 166 -96 12
30 -6 60 -48 83 -71 38 -111 79 -104 108 9 33 22 30 30 -6 4 -21 20 -40 51
-63 74 -52 115 -53 115 -2 0 24 -19 45 -65 68 -16 9 -45 29 -64 44 -29 25 -33
34 -27 57 7 28 26 27 26 -3 0 -20 40 -60 90 -90 44 -26 56 -26 70 -1 17 31 3
58 -40 80 -55 28 -110 79 -110 100 0 34 19 31 34 -4 9 -23 32 -46 63 -65 54
-35 90 -40 95 -13 8 36 -5 58 -45 80 -68 36 -109 76 -105 102 3 27 28 40 28
16 0 -24 65 -91 107 -111 35 -17 37 -17 50 1 23 31 11 56 -46 95 -30 21 -65
50 -79 64 -22 24 -23 29 -11 52 l13 25 9 -29 c17 -52 111 -131 142 -119 16 6
20 53 7 72 -4 6 -27 24 -52 41 -25 17 -55 41 -67 54 -19 21 -20 27 -8 49 l13
24 15 -35 c17 -41 109 -114 132 -105 25 9 19 73 -8 87 -12 7 -44 33 -71 59
-39 38 -47 51 -41 69 9 28 29 22 33 -10 4 -28 55 -84 95 -105 22 -12 32 -13
43 -3 22 18 18 66 -9 80 -12 7 -33 24 -47 38 -62 64 -72 79 -65 100 10 31 22
26 29 -13 4 -23 21 -47 53 -75 55 -48 88 -53 97 -15 10 39 -1 60 -47 87 -55
33 -100 81 -95 103 5 27 25 28 32 1 8 -33 38 -68 85 -101 34 -24 43 -26 56
-16 8 7 15 25 15 40 0 22 -11 36 -47 63 -47 34 -93 87 -93 105 0 5 7 15 15 22
13 10 15 9 15 -12 0 -31 60 -101 100 -118 24 -10 33 -10 45 0 31 25 18 57 -43
103 -66 51 -89 86 -75 112 9 15 12 13 22 -15 11 -32 26 -50 89 -97 26 -21 35
-23 47 -13 33 28 17 70 -43 113 -26 18 -53 46 -61 61 -13 24 -13 28 2 43 16
16 17 16 17 -5 0 -22 98 -132 117 -132 17 0 33 24 33 48 0 16 -20 42 -61 81
-46 44 -60 64 -57 81 5 38 22 33 41 -14 28 -67 115 -121 131 -80 13 34 4 51
-59 107 -45 41 -65 65 -65 82 0 40 18 38 29 -3 11 -38 42 -74 93 -107 38 -24
58 -14 58 28 0 28 -7 40 -37 63 -84 64 -110 108 -78 134 13 10 15 9 15 -12 0
-45 104 -154 135 -142 34 13 30 88 -5 99 -19 6 -110 101 -110 115 0 4 9 15 20
25 19 18 20 17 20 -4 0 -33 24 -74 69 -114 57 -51 62 -50 73 28 2 11 12 21 23
24 49 9 47 60 -5 101 -22 17 -40 36 -40 42 0 5 -9 23 -20 38 -21 29 -19 55 6
64 11 4 14 -4 14 -32 0 -32 8 -46 47 -85 49 -49 61 -55 81 -35 25 25 12 58
-48 118 -41 41 -60 68 -60 85 0 16 6 25 15 25 9 0 15 -9 15 -23 0 -25 38 -82
73 -109 41 -32 77 -19 77 28 0 8 -27 41 -60 73 -43 42 -60 66 -60 85 0 38 17
32 35 -11 21 -50 83 -113 111 -113 47 0 43 74 -4 102 -36 22 -85 91 -80 115 2
10 11 19 21 21 13 3 17 -3 17 -26 0 -20 13 -47 40 -80 48 -61 57 -67 75 -52
25 21 17 60 -23 109 -22 25 -46 58 -56 72 -16 25 -15 27 3 50 l20 24 1 -27 c0
-38 36 -103 73 -134 l31 -26 18 22 c26 32 22 54 -14 87 -72 63 -101 132 -63
147 10 4 15 -1 15 -15 0 -51 81 -154 116 -147 10 2 23 16 28 31 9 25 5 32 -41
80 -66 67 -77 90 -61 117 18 29 25 25 32 -18 8 -50 79 -134 110 -130 12 2 25
14 30 31 9 25 5 32 -41 80 -63 65 -79 93 -62 113 18 22 26 17 33 -20 9 -45 86
-132 109 -123 9 3 19 18 23 33 6 22 2 32 -17 48 -32 29 -79 98 -79 118 0 18
26 43 33 31 3 -4 8 -27 12 -50 5 -31 17 -51 46 -78 43 -38 49 -41 67 -23 25
25 13 63 -32 106 -24 22 -49 55 -56 73 -12 28 -12 33 5 45 27 20 35 17 35 -11
0 -51 66 -145 101 -145 10 0 21 12 27 30 10 27 7 34 -34 82 -45 53 -59 82 -52
114 6 33 28 27 28 -8 0 -34 50 -122 81 -141 45 -28 71 50 29 88 -11 10 -32 43
-46 72 -24 52 -25 56 -8 74 21 23 26 19 29 -20 2 -16 12 -49 23 -73 11 -24 22
-51 26 -61 9 -28 49 -18 60 15 10 30 4 48 -39 107 -29 39 -34 101 -10 121 13
11 15 7 15 -29 0 -44 36 -127 65 -151 15 -13 20 -12 36 9 26 32 24 40 -17 109
-39 67 -44 124 -12 130 15 3 17 -2 12 -26 -4 -20 2 -46 20 -85 36 -74 48 -84
80 -60 24 17 36 63 17 63 -12 0 -71 117 -71 140 0 17 18 40 32 40 4 0 8 -15 8
-32 0 -41 18 -108 29 -108 4 0 13 -11 19 -25 15 -33 38 -32 56 3 14 26 13 32
-9 68 -24 41 -38 144 -20 150 6 2 10 -15 11 -39 0 -56 42 -142 69 -142 10 0
26 12 34 26 14 25 13 31 -17 87 -33 62 -41 109 -20 130 20 20 24 14 24 -36 0
-52 31 -139 53 -147 15 -6 37 9 52 37 8 14 4 32 -15 71 -35 73 -41 111 -21
131 27 26 35 19 29 -26 -6 -52 25 -151 49 -156 9 -2 23 8 32 22 16 24 15 29
-4 81 -28 75 -28 131 0 140 28 9 33 1 19 -26 -10 -17 -10 -34 0 -78 7 -31 16
-64 21 -73 13 -24 42 -23 64 2 18 20 18 23 3 68 -36 104 -30 152 18 152 24 0
24 -1 10 -22 -17 -23 -20 -101 -7 -148 9 -33 50 -39 76 -10 17 19 18 26 7 66
-20 75 -16 121 13 140 28 18 44 12 26 -9 -14 -18 -26 -126 -17 -161 8 -30 35
-34 59 -8 11 12 16 37 15 94 0 84 4 95 36 108 31 11 39 2 16 -22z m121 8 c-12
-13 -28 -47 -36 -76 -8 -29 -16 -55 -19 -58 -11 -10 -6 94 5 127 9 26 16 31
42 31 l30 0 -22 -24z m117 15 c10 -6 8 -12 -10 -23 -14 -10 -32 -39 -43 -72
-23 -66 -37 -61 -24 8 15 79 42 110 77 87z m120 -20 c10 -6 7 -12 -13 -25 -14
-9 -35 -37 -47 -61 -34 -70 -50 -57 -24 18 23 64 53 88 84 68z m717 -396 l30
-26 -41 6 c-36 6 -46 2 -87 -29 -40 -31 -45 -32 -38 -13 7 20 84 87 99 87 4 0
21 -12 37 -25z m172 -131 l28 -25 -35 5 c-26 4 -44 0 -70 -16 -60 -38 -80 -47
-80 -38 0 6 25 26 55 46 30 20 55 41 55 45 0 16 19 9 47 -17z m-3007 -991 c0
-17 14 -46 35 -72 19 -24 35 -46 35 -48 0 -10 -57 41 -82 74 -21 28 -25 40
-17 54 14 28 29 23 29 -8z m-1206 -3377 c19 -9 39 -16 45 -16 6 0 11 -4 11 -9
0 -13 -49 2 -99 30 -27 16 -41 31 -41 45 0 36 13 36 32 1 9 -19 32 -41 52 -51z
m-74 -29 c1 -20 34 -54 76 -75 35 -19 36 -21 14 -22 -23 0 -92 30 -113 49 -10
10 3 72 14 65 5 -3 9 -11 9 -17z m22 -155 c8 -6 33 -18 54 -26 28 -11 33 -15
17 -15 -13 -1 -47 9 -78 22 -47 19 -55 26 -55 48 0 38 11 42 30 11 9 -15 24
-33 32 -40z m-73 -478 c11 -11 39 -27 63 -34 27 -9 37 -15 25 -18 -9 -2 -44 7
-77 20 -58 22 -60 24 -60 58 1 33 1 34 15 15 8 -11 24 -29 34 -41z m43 -129
c64 -29 19 -23 -54 8 -37 15 -48 25 -48 42 0 35 12 37 32 5 11 -18 39 -40 70
-55z m-14 -190 c62 -24 70 -40 10 -20 -100 31 -108 37 -108 74 l0 34 23 -34
c15 -23 39 -40 75 -54z m-77 -163 c8 -12 35 -30 60 -41 24 -12 37 -21 29 -21
-8 0 -35 9 -59 20 -23 11 -47 18 -51 15 -13 -8 -22 32 -14 58 5 17 8 19 13 7
3 -9 13 -26 22 -38z m-11 -192 c0 -8 57 -41 88 -50 23 -7 24 -8 6 -9 -12 -1
-38 6 -57 14 -46 19 -57 19 -57 0 0 -40 52 -85 120 -106 23 -7 24 -7 3 -8 -12
-1 -43 6 -69 15 -25 8 -49 13 -52 10 -3 -4 2 -21 10 -40 17 -34 68 -66 106
-66 12 0 24 -4 27 -10 8 -12 -44 -4 -107 18 l-48 16 0 130 c1 117 2 129 15
112 8 -11 15 -22 15 -26z m-5 -279 c9 -19 30 -35 60 -47 64 -24 49 -28 -24 -7
-58 17 -61 19 -61 51 0 40 5 40 25 3z m6747 -428 c58 -22 60 -24 50 -69 l-9
-39 -16 37 c-15 36 -35 53 -92 75 l-30 11 27 1 c15 1 47 -6 70 -16z"/>
<path d="M5360 9343 c-8 -3 -32 -19 -53 -36 -45 -35 -47 -66 -6 -81 22 -7 33
-4 65 22 22 17 56 38 77 47 20 8 37 20 37 25 0 24 -78 39 -120 23z"/>
<path d="M3934 9303 c-35 -6 -68 -15 -74 -18 -5 -3 -10 -26 -10 -50 0 -24 -5
-56 -12 -70 -13 -28 -28 -27 -86 6 -18 10 -41 19 -51 19 -36 0 -91 -31 -105
-59 -9 -16 -31 -38 -51 -49 -19 -12 -35 -28 -35 -36 0 -8 -3 -23 -7 -33 -6
-16 -5 -16 10 -5 9 8 20 11 26 8 12 -8 41 3 41 15 0 5 -14 9 -31 9 -35 0 -31
13 13 36 25 13 35 13 59 4 32 -13 35 -20 18 -37 -8 -8 -5 -17 10 -32 11 -11
18 -27 15 -36 -4 -9 3 -19 20 -26 14 -7 26 -16 26 -21 0 -4 7 -8 15 -8 14 0
13 3 -2 25 -10 13 -24 25 -30 25 -7 0 -13 4 -13 9 0 5 6 12 13 14 9 4 8 8 -3
17 -11 9 -12 13 -2 17 18 7 15 23 -4 16 -11 -4 -15 -1 -12 12 2 11 -8 24 -26
34 -44 25 -43 39 6 59 51 22 74 18 93 -17 12 -23 14 -23 15 -6 1 18 1 19 11 3
11 -21 35 -24 41 -6 3 9 6 9 12 0 4 -7 2 -12 -5 -12 -9 0 -9 -3 0 -14 8 -10 9
-16 1 -21 -7 -4 -5 -13 5 -28 8 -12 15 -27 15 -33 0 -19 -41 -24 -66 -7 -30
19 -31 43 -1 44 l22 0 -23 11 c-27 14 -35 7 -34 -29 0 -15 -4 -30 -9 -33 -4
-3 -6 -15 -3 -26 6 -21 50 -48 97 -58 23 -5 27 -12 27 -39 0 -42 -16 -68 -29
-48 -12 19 -41 6 -41 -18 0 -11 -5 -23 -10 -26 -7 -4 -7 -12 0 -25 7 -13 7
-21 0 -25 -5 -3 -10 -18 -10 -32 l0 -26 -20 26 c-24 30 -25 37 -5 37 18 0 19
4 3 30 -11 16 -9 22 7 35 19 15 19 16 -11 10 -29 -6 -31 -4 -31 21 0 24 2 26
34 21 29 -5 33 -4 23 8 -7 8 -17 15 -23 15 -6 0 -26 14 -44 32 l-33 32 0 -28
c0 -38 -37 -96 -61 -96 -10 0 -19 7 -19 15 0 8 -4 15 -10 15 -5 0 -10 7 -10
15 0 17 16 20 25 5 10 -16 35 -12 42 6 4 10 0 20 -10 26 -19 10 -23 43 -6 54
8 4 7 9 -2 15 -22 14 -39 10 -39 -8 0 -10 -7 -27 -15 -37 -13 -17 -17 -17 -32
-5 -28 22 -33 32 -27 53 4 12 2 16 -5 12 -14 -9 -15 -66 -1 -66 6 0 10 -7 10
-15 0 -8 4 -15 8 -15 5 0 23 -20 40 -45 35 -50 60 -65 72 -44 19 29 22 -3 5
-53 -30 -91 -21 -154 39 -257 8 -13 18 -26 23 -30 17 -12 36 -67 40 -116 2
-27 8 -65 13 -84 5 -19 7 -68 3 -108 -6 -69 -8 -74 -32 -80 -40 -9 -53 -24
-47 -52 3 -14 3 -20 0 -13 -9 20 -34 -6 -34 -35 0 -14 -9 -32 -20 -41 -12 -11
-24 -40 -30 -77 -18 -100 -18 -110 7 -110 12 0 25 -4 29 -8 4 -4 0 -7 -9 -7
-38 0 -14 -99 28 -118 14 -6 27 -23 31 -36 3 -14 21 -35 39 -46 31 -19 49 -20
368 -20 l336 0 25 33 c15 19 26 41 26 50 0 10 7 17 15 17 26 0 75 79 75 121 0
21 5 41 10 44 6 3 10 17 10 30 0 13 -4 27 -10 30 -5 3 -10 17 -10 31 0 14 -11
40 -25 58 -14 18 -25 42 -25 54 0 26 -49 86 -50 60 0 -9 5 -20 10 -23 6 -3 10
-11 10 -17 0 -6 -6 -6 -15 2 -9 7 -18 10 -22 7 -7 -8 -33 11 -33 24 0 5 6 9
14 9 7 0 19 7 26 15 11 13 9 15 -13 15 -51 0 -57 31 -45 226 5 82 10 100 53
190 45 93 48 104 49 179 0 64 -4 87 -22 118 -23 39 -19 46 12 22 18 -14 22
-13 48 12 15 15 28 31 28 36 0 5 16 27 35 48 40 45 42 55 15 89 -11 14 -20 32
-20 41 0 21 -45 69 -64 69 -8 0 -21 10 -27 23 -18 34 -61 66 -91 67 -14 0 -39
-11 -55 -24 -16 -14 -40 -27 -54 -31 -20 -5 -27 0 -41 27 -9 18 -22 54 -28 80
-7 26 -18 52 -24 57 -17 15 -191 17 -262 4z m244 -31 c3 -9 -4 -11 -25 -7 -26
6 -27 5 -10 -8 11 -9 14 -18 8 -21 -5 -4 -12 -2 -15 2 -9 14 -136 24 -151 12
-6 -5 -26 -8 -43 -6 -17 2 -36 -1 -44 -5 -10 -7 -9 -9 4 -9 9 0 18 -5 20 -11
3 -8 21 -6 61 7 50 15 64 16 105 6 26 -7 57 -24 70 -38 24 -27 25 -25 22 21
-2 26 0 28 15 15 10 -8 14 -22 11 -36 -4 -13 0 -27 9 -34 17 -14 21 -60 5 -60
-5 0 -10 5 -10 12 0 6 -7 4 -18 -5 -27 -24 -56 -22 -49 3 4 17 0 20 -24 20
-16 0 -29 4 -29 9 0 18 12 41 22 41 5 0 6 -4 3 -10 -8 -13 6 -13 25 0 13 9 13
11 0 20 -17 11 -51 3 -62 -14 -4 -6 -8 -26 -8 -43 0 -26 -4 -33 -19 -33 -16 0
-20 8 -23 41 -3 48 -27 71 -55 53 -28 -17 -27 -34 1 -34 16 0 26 -6 26 -15 0
-8 -9 -15 -20 -15 -12 0 -17 -5 -14 -13 2 -7 -2 -21 -10 -32 -14 -20 -15 -20
-38 1 -13 12 -29 19 -37 17 -17 -7 -31 14 -31 46 0 20 4 23 30 19 20 -3 30 0
30 9 0 7 -6 13 -14 13 -14 0 -29 60 -17 72 3 3 30 9 60 12 30 4 56 8 59 10 2
2 42 4 89 3 61 -2 88 -6 91 -15z m258 -128 c29 -30 30 -42 7 -51 -29 -11 -83
-57 -83 -70 0 -7 -9 -13 -20 -13 -10 0 -31 -5 -45 -12 -14 -6 -28 -8 -31 -5
-10 9 23 38 54 46 37 10 41 38 7 47 -16 4 -31 2 -38 -6 -9 -10 -7 -11 11 -5
30 9 28 -9 -3 -29 -14 -9 -25 -15 -26 -14 -12 42 8 88 39 88 8 0 27 11 44 25
37 32 55 31 84 -1z m-552 -69 c12 -9 17 -21 13 -35 -4 -14 0 -23 11 -27 9 -4
28 -15 41 -25 14 -11 32 -16 43 -12 14 4 25 -1 34 -15 19 -26 29 -26 61 -1 14
11 34 20 44 20 9 0 27 12 38 27 24 29 21 44 -4 19 -9 -9 -28 -16 -43 -15 -26
0 -25 1 8 15 19 8 43 17 52 20 10 3 20 15 23 25 8 23 23 25 31 4 7 -18 -2 -74
-16 -95 -9 -13 -12 -12 -25 4 -8 11 -15 15 -15 10 0 -6 -11 -17 -25 -24 -14
-7 -25 -19 -25 -26 0 -40 -100 -40 -151 -1 -38 29 -65 35 -71 16 -3 -9 -10 -9
-26 0 -24 13 -28 31 -10 49 9 9 8 12 -6 12 -13 0 -17 5 -13 20 3 11 1 23 -4
26 -13 8 -11 24 4 24 6 0 20 -7 31 -15z m258 -22 c7 -8 -7 -11 -52 -12 -64 0
-73 14 -15 25 20 3 38 11 42 17 4 7 8 6 11 -3 3 -8 9 -20 14 -27z m371 27 c7
0 19 -5 27 -10 13 -9 13 -11 1 -19 -12 -8 -12 -12 -2 -25 11 -13 11 -16 -3
-16 -9 0 -16 -2 -16 -5 0 -15 34 -55 46 -55 8 0 14 -5 14 -11 0 -11 -38 -3
-54 12 -6 5 -27 9 -47 9 -21 0 -39 5 -41 11 -2 7 -19 -2 -38 -20 -41 -37 -53
-39 -48 -8 2 14 9 21 20 19 9 -1 19 2 23 8 3 5 1 10 -5 10 -21 0 -21 29 0 50
27 27 40 18 15 -10 -25 -27 -17 -31 32 -17 52 15 65 27 30 27 -18 0 -27 5 -27
16 0 21 30 45 48 39 8 -3 19 -5 25 -5z m-506 -18 c1 -15 -4 -18 -23 -14 -14 2
-24 0 -24 -7 0 -7 8 -11 18 -10 9 1 26 1 37 0 18 -1 18 -2 2 -18 -14 -15 -21
-15 -37 -5 -11 6 -29 12 -41 12 -30 0 -21 35 11 36 13 1 26 7 28 13 6 18 28
13 29 -7z m71 -84 c3 -13 -3 -18 -22 -18 -20 0 -26 5 -26 21 0 15 5 20 22 17
13 -2 24 -11 26 -20z m516 0 c5 -9 8 -20 4 -23 -9 -9 -48 18 -48 33 0 18 30
11 44 -10z m-808 -3 c12 -8 24 -12 27 -9 3 3 11 3 18 -2 9 -5 7 -10 -7 -15
-29 -12 -41 -10 -58 7 -31 31 -16 45 20 19z m551 -1 c2 -6 -15 -17 -37 -24
-39 -13 -51 -32 -29 -46 6 -3 8 -17 5 -30 -8 -30 18 -33 34 -4 12 23 40 27 40
6 0 -8 -8 -17 -17 -21 -16 -6 -15 -8 7 -17 24 -9 24 -10 6 -24 -20 -14 -16
-18 17 -15 21 3 22 -7 0 -31 -9 -10 -11 -18 -5 -18 6 0 14 5 17 10 11 17 28
11 22 -9 -3 -14 0 -17 14 -14 26 7 25 -23 -2 -37 -23 -13 -49 2 -49 27 0 7 -7
16 -15 19 -8 4 -15 12 -15 20 0 7 -8 27 -19 44 -13 23 -20 27 -24 17 -7 -18 3
-60 16 -68 6 -4 5 -14 -2 -25 -10 -18 -10 -18 -11 4 0 12 -4 22 -8 22 -8 0
-15 20 -42 108 -10 32 -11 48 -2 68 7 14 17 22 23 18 6 -3 17 4 26 15 15 22
43 25 50 5z m-117 -46 c0 -24 -27 -58 -46 -58 -7 0 -18 -9 -24 -20 -10 -19
-19 -21 -91 -18 -68 2 -83 6 -101 25 -12 13 -27 23 -34 23 -15 0 -28 35 -19
50 4 6 15 4 30 -6 14 -9 22 -20 20 -25 -3 -4 13 -13 35 -20 22 -7 45 -18 51
-26 15 -18 29 -17 29 3 0 9 7 14 18 13 25 -3 72 12 72 23 0 16 34 57 48 58 6
0 12 -10 12 -22z m110 -6 c0 -5 -9 -17 -20 -27 -19 -18 -20 -17 -20 2 0 11 3
23 7 26 9 10 33 9 33 -1z m136 -11 c-21 -23 -14 -38 20 -51 24 -10 34 -40 13
-40 -18 0 -59 49 -59 71 0 25 -3 24 -41 -11 -41 -37 -49 -32 -16 12 20 25 34
34 63 36 36 2 37 2 20 -17z m-765 -36 c1 -17 -18 -17 -25 0 -4 11 -1 15 10 13
8 -2 15 -7 15 -13z m829 0 c0 -19 -11 -19 -36 0 -18 14 -18 14 9 15 17 0 27
-5 27 -15z m-640 -40 c0 -8 -4 -15 -10 -15 -5 0 -10 7 -10 15 0 8 5 15 10 15
6 0 10 -7 10 -15z m523 -6 c-4 -14 0 -25 11 -31 9 -5 16 -17 16 -26 0 -13 -6
-10 -25 12 -25 29 -31 47 -18 59 13 14 21 6 16 -14z m-715 -32 c13 -21 14 -31
5 -46 -9 -14 -9 -21 0 -30 9 -10 8 -15 -7 -26 -10 -8 -15 -18 -12 -23 3 -6 -1
-23 -9 -38 -8 -16 -15 -37 -15 -47 0 -11 -5 -15 -11 -11 -6 3 -9 19 -5 35 3
15 1 31 -4 34 -18 11 -10 23 10 18 23 -6 27 12 5 21 -8 3 -15 15 -15 27 0 18
2 19 15 9 23 -19 30 -4 9 17 -17 17 -17 18 4 21 21 3 32 22 13 22 -5 0 -11 11
-14 25 -6 32 9 28 31 -8z m242 13 c0 -11 -2 -20 -4 -20 -2 0 -11 -3 -20 -6
-19 -7 -22 16 -4 34 18 18 28 15 28 -8z m60 -15 c0 -3 -9 -14 -20 -25 -11 -11
-22 -20 -25 -20 -10 0 -5 26 7 38 12 12 38 17 38 7z m40 -8 c0 -17 -29 -57
-41 -57 -11 0 -3 38 13 58 13 16 28 16 28 -1z m74 -15 c3 -9 9 -23 12 -31 4
-7 -7 -1 -24 14 -18 15 -29 31 -26 36 7 12 31 0 38 -19z m66 -14 c0 -13 -43
15 -48 31 -3 9 5 7 22 -4 14 -10 26 -22 26 -27z m57 8 c-8 -19 -37 -21 -37 -3
0 7 5 18 12 25 15 15 33 -1 25 -22z m-362 -6 c-3 -5 -10 -10 -16 -10 -5 0 -9
5 -9 10 0 6 7 10 16 10 8 0 12 -4 9 -10z m55 -7 c-1 -16 -29 -45 -40 -41 -6 2
-5 11 5 26 16 21 35 30 35 15z m161 -15 c35 -30 42 -47 28 -65 -11 -13 -11
-17 -1 -20 11 -4 18 -33 8 -33 -7 0 -66 58 -66 65 0 4 9 5 20 2 26 -7 26 9 1
23 -29 15 -34 13 -53 -20 -17 -30 -38 -40 -38 -19 0 16 39 63 58 71 24 10 27
9 43 -4z m169 -4 c0 -8 -4 -12 -10 -9 -5 3 -10 10 -10 16 0 5 5 9 10 9 6 0 10
-7 10 -16z m-72 -27 c3 -16 1 -17 -17 -5 -25 16 -27 31 -4 26 10 -2 19 -11 21
-21z m42 2 c0 -6 -4 -7 -10 -4 -5 3 -10 11 -10 16 0 6 5 7 10 4 6 -3 10 -11
10 -16z m-260 7 c0 -2 -3 -11 -6 -20 -9 -23 -24 -20 -24 4 0 11 7 20 15 20 8
0 15 -2 15 -4z m355 -6 c-3 -5 -11 -10 -16 -10 -6 0 -7 5 -4 10 3 6 11 10 16
10 6 0 7 -4 4 -10z m-521 -9 c4 -5 3 -17 0 -26 -5 -13 -8 -14 -15 -3 -5 7 -9
19 -9 26 0 14 16 16 24 3z m66 -1 c0 -5 -4 -10 -10 -10 -5 0 -10 5 -10 10 0 6
5 10 10 10 6 0 10 -4 10 -10z m576 -16 c-6 -21 -4 -25 8 -21 20 8 21 -7 1 -23
-21 -17 -44 32 -25 55 18 22 23 19 16 -11z m-698 -25 c7 -11 9 -25 5 -32 -4
-7 -6 -20 -5 -29 4 -23 -3 -23 -28 2 -24 24 -25 30 -5 30 17 0 20 25 5 35 -5
3 -10 10 -10 15 0 15 24 1 38 -21z m599 9 c-3 -8 -6 -5 -6 6 -1 11 2 17 5 13
3 -3 4 -12 1 -19z m-427 -7 c0 -24 -18 -37 -32 -23 -8 8 -7 16 2 27 17 21 30
19 30 -4z m258 1 c2 -7 -2 -10 -12 -6 -9 3 -16 11 -16 16 0 13 23 5 28 -10z
m-198 -5 c0 -7 -6 -21 -13 -32 -19 -26 -30 -3 -11 23 17 25 24 28 24 9z m82
-6 c8 -10 21 -20 28 -23 7 -2 11 -10 9 -17 -3 -9 -12 -7 -31 8 -33 26 -38 26
-38 1 0 -11 5 -20 10 -20 15 0 12 -26 -6 -41 -13 -11 -14 -9 -9 14 6 21 4 27
-10 27 -12 0 -15 5 -10 18 4 9 10 25 12 35 7 22 24 22 45 -2z m173 9 c3 -5 2
-10 -4 -10 -5 0 -13 5 -16 10 -3 6 -2 10 4 10 5 0 13 -4 16 -10z m-373 -22
c-7 -7 -12 -8 -12 -2 0 14 12 26 19 19 2 -3 -1 -11 -7 -17z m522 -3 c-4 -8 -8
-15 -10 -15 -2 0 -4 7 -4 15 0 8 4 15 10 15 5 0 7 -7 4 -15z m-68 -34 c-12
-19 -24 -12 -19 10 4 13 9 17 15 11 6 -6 7 -15 4 -21z m-126 -3 c0 -13 -23 -5
-28 10 -2 7 2 10 12 6 9 -3 16 -11 16 -16z m216 -15 c-11 -11 -17 4 -9 23 7
18 8 18 11 1 2 -10 1 -21 -2 -24z m-530 0 c-10 -10 -19 5 -10 18 6 11 8 11 12
0 2 -7 1 -15 -2 -18z m-66 10 c0 -5 -4 -15 -10 -23 -11 -18 -25 -7 -17 15 6
15 27 21 27 8z m340 -9 c0 -2 -9 -4 -20 -4 -11 0 -20 4 -20 9 0 5 9 7 20 4 11
-3 20 -7 20 -9z m-160 -8 c0 -8 -7 -16 -15 -20 -15 -5 -21 14 -8 27 11 12 23
8 23 -7z m105 -6 c3 -5 -1 -10 -9 -10 -9 0 -16 5 -16 10 0 6 4 10 9 10 6 0 13
-4 16 -10z m245 0 c0 -5 -5 -10 -11 -10 -5 0 -7 5 -4 10 3 6 8 10 11 10 2 0 4
-4 4 -10z m-80 -30 c0 -5 -4 -10 -10 -10 -5 0 -10 5 -10 10 0 6 5 10 10 10 6
0 10 -4 10 -10z m-542 -12 c-3 -7 -11 -13 -18 -13 -7 0 -15 6 -17 13 -3 7 4
12 17 12 13 0 20 -5 18 -12z m253 -21 c-8 -8 -11 -7 -11 4 0 20 13 34 18 19 3
-7 -1 -17 -7 -23z m78 12 c-16 -10 -23 -4 -14 10 3 6 11 8 17 5 6 -4 5 -9 -3
-15z m126 -16 c3 -13 2 -23 -3 -23 -11 0 -22 24 -22 48 0 21 15 5 25 -25z
m225 -4 c-7 -11 -14 -19 -16 -16 -7 7 7 37 17 37 6 0 5 -9 -1 -21z m-635 -8
c-3 -6 -11 -11 -17 -11 -6 0 -6 6 2 15 14 17 26 13 15 -4z m125 5 c0 -3 -4 -8
-10 -11 -5 -3 -10 -1 -10 4 0 6 5 11 10 11 6 0 10 -2 10 -4z m108 -18 c-6 -18
-28 -21 -28 -4 0 9 7 16 16 16 9 0 14 -5 12 -12z m-148 -89 c0 -32 -4 -61 -10
-64 -5 -3 -10 -23 -10 -43 0 -20 -4 -54 -9 -74 -5 -21 -7 -38 -4 -38 9 0 33
72 33 102 0 25 3 29 10 18 19 -29 2 -122 -28 -152 -7 -7 -12 -19 -12 -27 0
-31 -33 -108 -52 -120 -24 -15 -41 -5 -35 20 4 14 0 19 -15 19 -10 0 -17 4
-14 8 3 5 18 7 34 4 31 -4 47 9 57 50 5 21 3 26 -12 25 -16 -2 -18 5 -16 58 2
33 4 103 6 155 3 84 6 98 27 122 23 25 26 26 38 11 6 -9 12 -43 12 -74z m181
58 c-10 -9 -11 -8 -5 6 3 10 9 15 12 12 3 -3 0 -11 -7 -18z m64 13 c3 -5 1
-10 -4 -10 -6 0 -11 5 -11 10 0 6 2 10 4 10 3 0 8 -4 11 -10z m235 0 c0 -5 -5
-10 -11 -10 -5 0 -7 5 -4 10 3 6 8 10 11 10 2 0 4 -4 4 -10z m-383 -18 c-3 -4
6 -21 19 -37 18 -23 24 -26 24 -12 0 9 7 17 15 17 12 0 15 -15 15 -75 0 -87
-14 -99 -25 -22 -6 47 -8 50 -17 27 -10 -25 -7 -69 10 -165 9 -45 8 -51 -14
-68 -27 -21 -32 -42 -9 -33 10 4 22 -5 35 -27 25 -40 25 -47 0 -47 -11 0 -20
7 -20 15 0 8 -3 15 -6 15 -3 0 -12 -7 -20 -15 -21 -21 -27 -19 -42 13 -8 17
-9 28 -2 30 17 6 1 22 -22 22 -18 0 -20 4 -14 31 3 17 6 38 6 45 0 8 5 14 10
14 6 0 10 -9 10 -19 0 -11 5 -23 11 -27 11 -7 9 92 -7 241 -5 56 -4 61 18 71
31 15 30 15 25 6z m263 -28 c0 -14 7 -33 16 -42 12 -12 15 -27 11 -64 -4 -26
-11 -56 -16 -66 -8 -13 -11 -8 -11 28 -1 41 -2 43 -11 20 -23 -55 19 -270 52
-270 6 0 7 5 4 10 -11 17 7 11 21 -7 22 -30 16 -34 -43 -32 -89 3 -96 6 -90
43 5 38 0 56 -18 56 -16 0 -27 -42 -19 -75 6 -23 4 -25 -29 -25 -20 0 -39 5
-43 11 -8 14 -7 360 2 368 3 3 19 -2 35 -11 29 -17 29 -17 29 7 0 30 16 33 25
5 10 -32 27 -24 20 9 -5 23 -1 33 21 50 31 24 44 20 44 -15z m93 -45 c13 -47
16 -84 12 -139 -4 -58 -2 -69 6 -50 6 14 13 62 16 108 9 132 21 95 20 -63 -1
-138 -10 -181 -24 -115 -5 28 -23 53 -23 32 0 -42 61 -142 86 -142 8 0 14 -4
14 -9 0 -4 -17 -8 -37 -7 -33 1 -40 6 -60 42 -12 22 -24 56 -27 76 -2 19 -11
49 -20 66 -20 39 -23 87 -12 190 10 99 24 102 49 11z m-51 -253 c4 -51 -18
-60 -28 -12 -7 40 2 74 16 60 5 -5 10 -27 12 -48z m-398 -82 c23 -9 20 -23 -4
-17 -11 3 -20 9 -20 14 0 11 3 11 24 3z m265 -65 c27 -5 57 -19 66 -29 12 -14
25 -18 42 -14 13 4 30 1 37 -5 11 -9 15 -9 19 1 3 8 6 5 6 -6 1 -16 4 -17 13
-8 17 17 79 15 106 -4 14 -10 22 -26 22 -44 0 -40 -16 -46 -32 -13 -14 30 -58
45 -58 20 0 -8 10 -13 23 -13 18 1 21 -4 19 -26 -3 -26 -1 -28 33 -28 32 0 36
3 30 20 -4 11 -2 20 4 20 6 0 11 11 11 25 0 33 18 32 30 -1 13 -34 13 -151 0
-159 -6 -4 -17 -1 -25 5 -12 10 -16 9 -21 -4 -3 -9 -1 -23 5 -30 8 -10 9 -16
1 -21 -5 -3 -10 2 -10 12 0 16 -2 16 -18 -3 -17 -22 -72 -28 -99 -11 -6 4 -24
0 -39 -8 -39 -20 -95 -20 -88 0 5 12 -2 11 -37 -5 -71 -32 -135 -22 -193 29
-26 23 -56 85 -56 117 0 23 -2 25 -15 14 -11 -9 -13 -16 -5 -24 16 -16 13 -56
-5 -50 -9 4 -15 19 -15 36 0 17 -4 27 -10 23 -16 -10 -12 -57 7 -77 16 -18 15
-18 -23 -5 -83 29 -110 30 -140 2 -15 -14 -25 -28 -22 -30 3 -3 11 1 18 10 26
31 160 5 160 -32 0 -14 -11 -15 -92 -10 -116 7 -128 11 -128 48 0 24 4 28 22
26 20 -2 22 3 26 66 3 46 0 67 -8 67 -18 0 -7 62 13 74 15 9 22 7 37 -11 21
-26 30 -29 30 -9 0 19 22 26 85 26 63 0 76 -13 41 -41 -14 -11 -26 -26 -26
-32 0 -7 7 -4 14 6 19 25 26 21 26 -15 0 -31 1 -30 26 20 26 53 64 88 112 102
15 5 28 9 29 9 1 1 24 -4 52 -10z m-130 -3 c-2 -2 -40 -7 -84 -10 -56 -5 -76
-4 -65 3 13 10 159 16 149 7z m349 -5 c46 0 81 -4 79 -8 -3 -5 -47 -7 -99 -7
-124 2 -128 2 -128 14 0 5 15 8 33 6 17 -2 69 -4 115 -5z m-675 -182 c-17 -29
-33 -38 -33 -19 0 6 -10 10 -22 11 -13 0 -18 3 -11 5 7 3 17 21 23 40 l12 36
24 -23 c23 -21 23 -23 7 -50z m293 -136 c-4 -4 -14 1 -22 11 -22 31 -17 43 8
19 12 -13 18 -26 14 -30z"/>
<path d="M4091 8290 c-1 -60 16 -117 38 -129 16 -9 18 -4 20 40 2 43 -1 51
-18 56 -12 3 -23 19 -29 41 l-10 37 -1 -45z"/>
<path d="M4164 8066 c-8 -22 1 -30 21 -19 15 9 15 11 1 22 -13 11 -17 10 -22
-3z"/>
<path d="M4195 8030 c3 -5 8 -10 11 -10 2 0 4 5 4 10 0 6 -5 10 -11 10 -5 0
-7 -4 -4 -10z"/>
<path d="M4009 7926 c-85 -57 -91 -177 -12 -246 33 -29 41 -32 88 -28 86 7
135 60 135 145 0 84 -48 139 -131 148 -35 4 -51 0 -80 -19z m119 -10 c58 -30
93 -96 51 -96 -18 0 -19 2 -9 15 8 9 8 15 2 15 -6 0 -18 8 -28 17 -21 21 -93
26 -119 7 -10 -8 -16 -17 -12 -20 9 -9 -19 -34 -37 -34 -9 0 -16 5 -16 10 0 6
7 10 15 10 9 0 12 6 9 15 -9 22 47 70 85 73 17 1 44 -4 59 -12z m-131 -136
c-5 -21 -3 -30 7 -30 7 0 18 -12 24 -26 11 -23 17 -25 66 -22 36 2 52 7 49 15
-3 7 3 10 16 6 12 -3 21 -8 21 -12 0 -16 -66 -44 -103 -44 -33 0 -46 7 -74 37
-19 20 -31 36 -28 36 3 0 3 5 -1 12 -4 7 -9 22 -10 35 -2 17 2 23 18 23 17 0
20 -4 15 -30z m213 20 c0 -5 -9 -10 -20 -10 -11 0 -20 5 -20 10 0 6 9 10 20
10 11 0 20 -4 20 -10z m0 -29 c0 -6 -5 -13 -11 -16 -6 -4 -8 -13 -5 -21 7 -18
-5 -18 -30 1 -17 13 -17 14 -1 15 20 0 23 16 5 23 -7 3 -1 6 15 6 15 1 27 -3
27 -8z"/>
<path d="M3761 7838 c-1 -16 2 -28 7 -29 4 0 26 -2 49 -4 24 -2 45 1 49 6 3 5
-13 9 -34 9 -30 0 -43 6 -55 23 l-16 22 0 -27z"/>
<path d="M4254 7846 c-12 -31 44 -161 62 -144 4 5 0 16 -9 26 -11 12 -17 36
-17 64 0 49 -24 85 -36 54z"/>
<path d="M4357 7726 c-7 -16 38 -51 53 -41 17 10 11 35 -8 35 -10 0 -23 5 -29
11 -7 7 -12 6 -16 -5z"/>
<path d="M4310 7680 c0 -5 5 -10 10 -10 6 0 10 5 10 10 0 6 -4 10 -10 10 -5 0
-10 -4 -10 -10z"/>
<path d="M3780 8880 c27 -21 50 -26 50 -11 0 5 -14 14 -31 20 -44 15 -48 14
-19 -9z"/>
<path d="M3870 7472 c0 -5 9 -17 20 -27 11 -10 20 -22 20 -27 0 -4 -112 -8
-250 -8 -160 0 -250 -4 -250 -10 0 -5 16 -10 35 -10 28 0 35 -4 35 -20 0 -17
-5 -19 -25 -14 -32 8 -32 4 7 -51 41 -57 58 -63 38 -11 -11 29 0 41 30 31 14
-4 20 -15 20 -36 0 -19 5 -29 15 -29 12 0 15 14 15 65 l0 66 72 -3 c41 -2 73
-8 75 -14 3 -8 -12 -10 -45 -6 -54 5 -86 -15 -75 -46 14 -37 36 -62 55 -62 18
0 18 2 -6 31 -14 17 -24 35 -20 40 11 18 52 9 67 -15 9 -13 28 -27 43 -30 14
-4 34 -14 43 -23 15 -16 16 -12 21 53 4 55 8 69 23 72 22 4 33 -24 17 -43 -10
-12 -10 -18 0 -30 14 -17 40 -20 40 -5 0 6 9 10 20 10 15 0 22 -9 27 -30 11
-55 23 -42 23 24 0 62 1 66 26 72 14 4 30 2 37 -5 8 -8 8 -11 -1 -11 -6 0 -16
-9 -22 -20 -14 -26 2 -58 35 -66 13 -3 26 -12 29 -21 12 -30 26 1 26 58 0 44
4 61 15 65 33 13 -1 24 -74 24 -75 0 -78 1 -111 35 -33 34 -50 43 -50 27z
m-322 -99 c5 -17 -26 -29 -40 -15 -6 6 -7 15 -3 22 9 14 37 9 43 -7z m232 -29
c0 -27 -4 -34 -20 -34 -21 0 -27 15 -10 25 6 3 10 17 10 31 0 14 4 22 10 19 6
-3 10 -22 10 -41z m150 26 c0 -21 -24 -28 -35 -10 -8 14 3 30 21 30 8 0 14 -9
14 -20z m128 -43 c2 -10 -3 -17 -12 -17 -18 0 -29 16 -21 31 9 14 29 6 33 -14z"/>
<path d="M4616 7472 c-3 -5 3 -17 14 -27 11 -10 20 -22 20 -27 0 -4 -97 -8
-215 -8 -137 0 -215 -4 -215 -10 0 -6 26 -10 59 -10 33 0 66 -3 75 -6 24 -9 9
-24 -25 -24 -33 0 -32 0 -19 -34 15 -41 -7 -42 -31 -2 -22 37 -39 47 -39 22 0
-20 49 -76 65 -76 23 0 44 28 38 51 -4 16 -2 20 8 17 8 -2 16 -21 19 -42 8
-57 24 -43 30 26 4 56 8 63 28 66 28 4 43 -26 19 -40 -10 -5 -17 -13 -17 -18
0 -21 41 -50 70 -50 20 0 30 -5 30 -15 0 -8 4 -15 10 -15 5 0 10 30 12 68 l3
67 44 3 c24 2 49 -2 54 -7 8 -8 3 -11 -15 -11 -43 0 -58 -10 -58 -41 0 -35 44
-89 60 -73 7 7 5 16 -10 29 -31 28 -26 55 9 55 28 0 30 -3 33 -42 2 -23 9 -43
16 -46 9 -3 12 14 12 62 0 51 4 67 18 75 16 9 16 10 -3 17 -11 4 -36 22 -56
41 -20 19 -39 31 -43 25z m-91 -129 c0 -23 -5 -29 -27 -31 -16 -2 -28 1 -28 7
0 6 5 11 10 11 6 0 10 11 10 23 0 13 3 27 7 30 12 12 29 -12 28 -40z"/>
<path d="M2799 6867 c-24 -16 -35 -32 -39 -57 -4 -29 -10 -35 -39 -43 -19 -5
-30 -12 -24 -15 17 -11 36 -97 30 -134 -7 -46 22 -209 41 -230 14 -17 8 -18
-116 -18 -76 0 -133 -4 -137 -10 -4 -6 40 -10 124 -10 l131 0 0 -35 0 -35 -49
0 c-47 0 -64 -5 -166 -51 l-50 -22 30 -7 c48 -12 119 -11 175 2 50 12 52 11
74 -16 l22 -28 514 10 c283 6 522 7 530 2 34 -17 82 -18 135 -5 31 8 75 15 98
15 70 0 166 31 199 63 7 7 44 34 83 60 l70 47 205 1 c382 1 667 15 747 38 40
12 85 21 100 21 22 0 16 6 -32 26 -107 46 -167 65 -276 90 -59 13 -119 28
-134 34 -14 5 -46 10 -71 10 -31 0 -65 11 -114 35 -137 70 -209 69 -550 -10
-415 -97 -486 -108 -665 -109 -161 -1 -175 1 -262 28 -63 20 -104 39 -130 62
-21 19 -87 73 -148 120 -60 48 -117 94 -125 103 -36 39 -109 91 -127 91 -11 0
-35 -10 -54 -23z"/>
<path d="M6920 6231 c-19 -6 -24 -13 -22 -32 4 -39 22 -47 115 -51 96 -3 103
2 65 47 -32 36 -102 52 -158 36z"/>
<path d="M4590 5771 c0 -10 -6 -24 -14 -31 -8 -6 -13 -17 -11 -23 3 -7 -10
-19 -28 -27 -46 -21 -62 -75 -41 -133 30 -83 31 -80 -6 -72 -30 7 -32 6 -19
-7 8 -9 24 -18 36 -22 17 -6 20 -12 14 -34 -6 -21 -15 -28 -42 -33 l-34 -6 33
-2 c32 -1 46 -25 20 -34 -10 -3 -10 -9 1 -30 12 -23 12 -29 -2 -50 -10 -16
-12 -28 -6 -34 7 -7 7 -32 2 -69 l-8 -59 -85 0 -85 0 -10 80 c-6 44 -14 86
-18 93 -6 8 -37 12 -96 12 -59 0 -92 -4 -98 -12 -6 -7 -18 -71 -27 -143 -9
-71 -19 -131 -21 -134 -4 -4 -72 -4 -181 -2 -15 1 -24 12 -34 40 -7 22 -10 46
-7 54 4 10 -3 17 -21 22 -20 5 -30 1 -43 -17 l-18 -23 -9 25 c-5 14 -12 51
-16 83 -6 48 -5 57 8 57 9 0 16 5 16 10 0 6 -8 10 -19 10 -13 0 -20 10 -25 31
-9 44 -8 49 8 49 27 0 27 30 0 40 -30 12 -23 30 11 30 13 0 27 5 31 11 4 8 -3
9 -25 4 -29 -6 -31 -5 -31 23 0 40 -26 49 -59 20 -14 -13 -28 -24 -30 -26 -3
-1 5 -13 17 -25 24 -25 20 -37 -10 -37 -24 0 -23 -31 2 -37 23 -6 25 -29 8
-70 -6 -15 -10 -32 -9 -36 1 -5 -4 -37 -10 -73 -9 -51 -15 -64 -29 -64 -11 0
-22 5 -25 10 -3 6 -20 10 -36 10 -25 0 -29 -3 -24 -19 3 -12 0 -21 -10 -25 -9
-3 -15 -18 -15 -35 0 -33 -10 -44 -33 -35 -10 3 -16 29 -21 82 -4 42 -10 94
-13 116 l-6 38 -66 -6 c-121 -12 -196 -45 -136 -60 24 -6 36 -36 15 -36 -5 0
-10 -15 -10 -34 0 -100 -35 -131 -59 -51 l-13 44 -151 3 -151 3 -8 32 c-18 68
-89 70 -109 3 -12 -39 -14 -40 -55 -40 -46 0 -97 33 -109 70 -8 24 -38 26 -56
4 -12 -14 -14 -14 -25 1 -14 19 -34 12 -34 -11 0 -8 -6 -15 -12 -16 -7 0 -17
-2 -23 -3 -5 -2 -16 -3 -23 -4 -7 0 -10 -5 -7 -11 3 -5 -1 -10 -9 -10 -16 0
-26 -30 -46 -142 -10 -57 -15 -67 -35 -71 -13 -2 -30 0 -37 4 -9 6 -4 9 15 9
20 0 27 5 27 19 0 10 -6 21 -12 23 -7 2 -191 1 -408 -2 l-395 -5 -3 -55 c-5
-79 14 -134 65 -190 37 -42 50 -49 93 -55 l50 -7 0 -53 c0 -76 6 -85 50 -85
l38 0 7 60 c4 33 11 63 17 66 5 3 34 3 64 -1 54 -6 54 -7 54 -41 0 -37 -15
-46 -23 -14 -7 29 -23 25 -41 -10 -13 -27 -13 -33 0 -60 18 -35 29 -38 43 -11
13 23 55 32 188 38 95 4 102 3 122 -18 l20 -22 646 7 c578 6 646 5 651 -8 8
-20 48 -21 64 -1 10 13 54 15 272 15 228 0 264 -2 289 -17 27 -16 31 -16 58 0
34 20 94 21 560 10 l293 -6 10 -29 c9 -27 13 -28 70 -28 57 0 60 1 71 30 l11
30 556 0 555 0 35 60 c19 34 42 73 50 88 54 96 130 180 268 296 55 46 79 73
73 79 -7 7 -158 4 -448 -8 -531 -23 -572 -22 -595 8 -10 12 -18 30 -18 39 0
15 -21 17 -207 22 -115 2 -239 8 -276 13 -58 7 -70 12 -80 33 -10 19 -20 25
-47 25 -28 0 -35 -4 -40 -25 -5 -20 -13 -26 -43 -28 -35 -3 -39 -1 -53 35 -15
35 -15 40 0 66 22 38 20 55 -6 78 -28 22 -61 24 -78 4 -18 -21 -30 -9 -30 31
0 36 5 34 -80 38 -37 2 -40 20 -5 27 l30 7 -28 1 c-44 2 -57 70 -13 71 6 0 20
8 31 17 19 15 18 15 -17 10 -42 -6 -46 2 -23 43 33 58 5 156 -47 167 -18 4
-27 11 -24 19 3 7 -2 15 -10 18 -8 3 -14 17 -14 31 0 14 -4 25 -10 25 -5 0
-10 -8 -10 -19z m-112 -728 c-3 -26 -7 -28 -52 -31 -72 -5 -96 4 -96 33 0 24
2 25 76 25 l75 0 -3 -27z m1957 -113 c13 -42 -22 -69 -60 -44 -38 25 -39 43
-3 58 37 16 55 12 63 -14z m-4445 -20 c0 -5 -4 -10 -10 -10 -5 0 -10 5 -10 10
0 6 5 10 10 10 6 0 10 -4 10 -10z m70 6 c0 -11 -19 -15 -25 -6 -3 5 1 10 9 10
9 0 16 -2 16 -4z m60 -6 c0 -5 -2 -10 -4 -10 -3 0 -8 5 -11 10 -3 6 -1 10 4
10 6 0 11 -4 11 -10z m60 0 c0 -5 -2 -10 -4 -10 -3 0 -8 5 -11 10 -3 6 -1 10
4 10 6 0 11 -4 11 -10z m-130 -317 c30 -10 54 -22 53 -28 -2 -6 -40 -10 -90
-10 l-88 0 -3 34 -3 34 38 -6 c21 -4 63 -15 93 -24z"/>
<path d="M5777 5063 c-4 -3 -7 -17 -7 -30 0 -21 4 -23 55 -23 59 0 63 4 39 38
-15 21 -71 31 -87 15z"/>
<path d="M7250 4307 c0 -35 25 -57 64 -57 18 0 55 -7 81 -15 27 -8 51 -12 54
-9 3 2 1 16 -5 31 -15 43 -54 65 -128 70 -66 6 -66 6 -66 -20z"/>
<path d="M4700 3673 l0 -86 -117 7 c-187 10 -931 7 -1002 -4 -35 -6 -91 -18
-125 -26 -34 -8 -162 -25 -286 -39 -232 -25 -315 -39 -580 -99 -187 -43 -189
-43 -220 67 -37 125 -29 117 -114 117 -72 0 -111 -15 -67 -27 20 -5 21 -12 21
-117 0 -127 -1 -129 -85 -141 -32 -5 -49 -4 -55 4 -5 9 -17 6 -43 -11 -20 -13
-36 -28 -37 -33 0 -16 59 -36 118 -40 29 -2 67 -12 85 -22 31 -18 32 -21 35
-94 4 -120 3 -119 71 -119 67 0 71 4 96 78 9 29 24 56 32 59 9 3 77 -9 152
-27 450 -108 543 -114 2051 -111 1174 2 1196 2 1265 23 81 24 140 51 173 82
66 59 82 174 37 252 -40 68 -157 133 -280 154 -52 10 -316 29 -495 36 -162 7
-150 -2 -150 109 l0 95 -240 0 -240 0 0 -87z"/>
<path d="M715 3550 c-13 -21 30 -75 78 -99 61 -30 53 -39 -14 -17 -28 10 -54
15 -57 11 -3 -3 2 -20 10 -39 19 -39 66 -64 129 -68 41 -3 44 -1 47 23 2 14
-4 31 -13 39 -14 12 -14 15 2 32 27 30 1 69 -57 86 -25 7 -58 19 -73 27 -34
18 -44 19 -52 5z"/>
<path d="M730 3335 c0 -37 48 -82 104 -96 26 -6 45 -14 42 -16 -2 -3 -29 2
-59 11 -70 20 -77 20 -77 -3 0 -42 86 -101 148 -101 6 0 12 -4 12 -10 0 -11
-45 -4 -103 15 -51 17 -59 -2 -23 -50 20 -26 41 -39 81 -51 30 -8 65 -14 77
-12 28 4 36 40 15 71 -8 13 -12 37 -9 58 3 30 -1 40 -23 58 -19 14 -23 21 -12
21 24 0 30 18 17 51 -8 19 -22 31 -39 34 -27 6 -116 32 -138 42 -9 3 -13 -5
-13 -22z"/>
<path d="M770 3025 c0 -47 62 -93 140 -106 52 -8 80 3 80 31 0 34 -36 60 -80
60 -22 0 -57 7 -77 15 -45 19 -63 19 -63 0z"/>
<path d="M983 2673 c-46 -2 -83 -8 -83 -12 0 -5 9 -20 21 -34 26 -35 83 -49
150 -39 50 7 54 9 57 37 4 31 -19 57 -47 53 -9 -1 -53 -4 -98 -5z"/>
<path d="M1232 2507 c-6 -7 -34 -24 -62 -37 -27 -13 -50 -26 -50 -29 0 -3 7
-15 15 -25 16 -21 80 -28 93 -10 4 5 19 15 34 23 15 8 37 23 48 34 20 18 20
20 4 38 -20 22 -66 25 -82 6z"/>
<path d="M1559 2361 c-9 -3 -41 -34 -73 -67 -60 -66 -59 -74 6 -74 24 0 43 12
80 49 29 29 48 57 46 67 -4 20 -36 34 -59 25z"/>
<path d="M2763 1973 c-3 -10 -19 -46 -34 -80 -15 -35 -24 -65 -19 -68 13 -8
62 5 82 22 22 19 61 111 54 129 -8 21 -75 18 -83 -3z"/>
<path d="M1031 1343 c-16 -13 -24 -33 -28 -63 -4 -40 14 -91 161 -465 120
-303 174 -426 192 -443 23 -20 35 -22 148 -22 106 0 127 3 148 19 23 19 39 55
143 326 25 66 50 131 56 145 10 22 20 0 103 -213 51 -130 100 -245 109 -255
25 -24 251 -31 294 -9 25 14 41 46 133 279 57 145 132 335 167 423 72 182 79
230 38 270 -22 23 -32 25 -110 25 -138 0 -125 16 -249 -312 -59 -156 -111
-287 -115 -291 -4 -4 -56 120 -114 275 -78 206 -114 289 -133 306 -22 19 -36
22 -114 22 -78 0 -92 -3 -113 -22 -17 -16 -56 -107 -122 -283 -54 -143 -103
-271 -110 -284 -12 -24 -13 -23 -33 30 -11 30 -55 144 -97 254 -43 110 -82
215 -88 232 -19 58 -38 68 -146 71 -83 3 -100 1 -120 -15z"/>
<path d="M2934 1341 c-17 -10 -39 -36 -50 -57 -17 -36 -19 -67 -22 -381 l-3
-342 25 -49 c30 -60 115 -138 164 -153 24 -7 155 -9 379 -7 328 3 343 4 370
24 66 49 88 118 62 193 l-11 31 -301 0 c-268 0 -306 2 -337 18 -28 14 -36 24
-38 51 -2 18 2 39 8 45 7 7 98 13 268 16 l257 5 23 45 c16 32 22 62 22 106 0
102 26 94 -290 94 -191 0 -281 3 -286 11 -13 22 -6 93 12 106 14 10 90 13 319
13 l302 0 21 23 c39 41 55 142 32 201 l-10 26 -442 0 c-416 0 -445 -1 -474
-19z"/>
<path d="M4084 1341 c-56 -34 -69 -77 -72 -247 -3 -145 -2 -154 21 -200 30
-58 88 -119 139 -145 33 -17 61 -19 245 -19 266 0 313 -13 296 -81 -12 -50 -6
-49 -333 -49 -291 0 -308 -1 -324 -19 -39 -43 -58 -149 -36 -205 l10 -26 448
0 c446 0 450 0 477 22 53 41 65 87 65 252 0 171 -9 202 -81 276 -72 74 -94 80
-337 80 -257 0 -282 6 -282 69 0 30 5 43 19 51 12 6 132 10 320 10 296 0 300
0 321 22 36 39 52 145 30 202 l-10 26 -442 0 c-416 0 -445 -1 -474 -19z"/>
<path d="M5234 1341 c-17 -10 -39 -36 -50 -57 -17 -36 -19 -67 -22 -381 l-3
-342 25 -49 c30 -60 115 -138 164 -153 24 -7 155 -9 379 -7 327 3 343 4 369
24 64 47 88 117 64 188 l-12 36 -301 0 c-267 0 -306 2 -337 18 -28 14 -36 24
-38 51 -2 18 2 39 8 45 7 7 98 13 268 16 l257 5 23 45 c16 32 22 62 22 106 0
102 26 94 -290 94 -201 0 -281 3 -286 12 -13 21 -5 92 13 106 13 9 93 12 318
12 l302 0 21 23 c39 41 55 142 32 201 l-10 26 -442 0 c-416 0 -445 -1 -474
-19z"/>
<path d="M6384 1341 c-17 -10 -39 -36 -50 -57 -17 -36 -19 -67 -22 -381 l-3
-342 25 -48 c28 -56 101 -128 151 -149 44 -18 672 -21 726 -3 44 15 78 46 95
86 17 39 17 65 3 116 l-10 37 -302 0 c-267 0 -306 2 -337 18 -29 14 -36 23
-38 53 -2 21 2 40 11 47 9 8 95 13 267 14 l254 3 20 34 c24 42 35 173 16 196
-11 13 -54 15 -287 15 l-274 0 -8 23 c-12 30 -3 79 17 95 12 9 92 12 319 12
298 0 302 0 323 22 36 39 52 145 30 202 l-10 26 -442 0 c-416 0 -445 -1 -474
-19z"/>
</g>
</svg>
